<svg width="578" height="174" viewBox="0 0 578 174" fill="none" xmlns="http://www.w3.org/2000/svg">
<mask id="mask0_548_227" style="mask-type:alpha" maskUnits="userSpaceOnUse" x="0" y="0" width="150" height="174">
<rect width="150" height="173.154" fill="#C4C4C4"/>
</mask>
<g mask="url(#mask0_548_227)">
<rect width="86.6416" height="86.6416" transform="matrix(-0.866096 -0.499878 0.866096 -0.499877 74.9863 86.6204)" fill="white"/>
<path d="M75.342 86.6878L75.342 173.088L0.0382631 130.225L-0.0536348 43.3102L75.342 86.6878Z" fill="#1C0C5B"/>
<path d="M74.7534 86.6879L74.7534 173.088L150.057 130.225L150.057 43.3102L74.7534 86.6879Z" fill="#916BBF"/>
<rect width="62.7892" height="62.7892" transform="matrix(0.866096 0.499878 -0.866096 0.499878 75.0723 86.626)" fill="white"/>
<path d="M74.8147 86.5772L74.8146 23.9633L129.387 55.0261L129.454 118.013L74.8147 86.5772Z" fill="#1C0C5B"/>
<path d="M75.2411 86.5772L75.2411 23.9633L20.6686 55.0261L20.6686 118.013L75.2411 86.5772Z" fill="#916BBF"/>
<rect width="40.6788" height="40.6788" transform="matrix(-0.866096 -0.499878 0.866096 -0.499877 75.0129 86.5341)" fill="white"/>
<path d="M75.1797 86.5658L75.1797 127.131L39.8242 107.007L39.781 66.1997L75.1797 86.5658Z" fill="#1C0C5B"/>
<path d="M74.9034 86.5658L74.9034 127.131L110.259 107.007L110.259 66.1997L74.9034 86.5658Z" fill="#916BBF"/>
</g>
<path d="M226.335 130.128C220.467 130.204 215.428 129.226 211.216 127.195C207.003 125.164 202.941 122.193 199.03 118.281C198.88 118.131 198.729 117.943 198.579 117.717C198.428 117.416 198.353 117.04 198.353 116.589C198.353 115.987 198.616 115.423 199.143 114.896C199.669 114.295 200.233 113.994 200.835 113.994C201.512 113.994 202.152 114.332 202.753 115.009C205.762 118.469 209.26 121.102 213.246 122.907C217.308 124.713 221.521 125.615 225.883 125.615C229.719 125.615 233.142 125.013 236.151 123.81C239.159 122.531 241.529 120.763 243.259 118.507C244.989 116.175 245.854 113.467 245.854 110.383C245.779 106.547 244.726 103.463 242.695 101.131C240.664 98.7995 238.031 96.8814 234.797 95.377C231.638 93.8726 228.29 92.481 224.755 91.2023C221.972 90.1492 219.226 89.0586 216.518 87.9303C213.811 86.802 211.366 85.448 209.185 83.8684C207.003 82.2136 205.273 80.1827 203.994 77.7757C202.716 75.2934 202.076 72.2471 202.076 68.6365C202.076 64.9508 203.054 61.6411 205.01 58.7076C207.041 55.6988 209.899 53.3294 213.585 51.5994C217.346 49.7941 221.784 48.8915 226.899 48.8915C231.186 48.8915 235.361 49.6813 239.423 51.2609C243.485 52.7653 246.681 55.0594 249.013 58.1434C249.765 59.1965 250.141 59.9863 250.141 60.5128C250.141 61.0394 249.841 61.5659 249.239 62.0924C248.712 62.619 248.111 62.8823 247.434 62.8823C246.832 62.8823 246.343 62.6566 245.967 62.2053C244.613 60.4 242.958 58.858 241.002 57.5793C239.122 56.2253 236.978 55.2099 234.571 54.5329C232.164 53.7807 229.607 53.4046 226.899 53.4046C223.213 53.4046 219.866 54.0064 216.857 55.2099C213.848 56.4134 211.441 58.1434 209.636 60.4C207.831 62.5814 206.928 65.2893 206.928 68.5237C206.928 71.9838 207.906 74.8421 209.862 77.0987C211.892 79.2801 214.45 81.1229 217.534 82.6273C220.618 84.0565 223.777 85.3728 227.012 86.5763C229.87 87.5542 232.691 88.6449 235.474 89.8484C238.332 90.9767 240.89 92.4058 243.146 94.1359C245.478 95.8659 247.321 98.0473 248.675 100.68C250.029 103.313 250.706 106.622 250.706 110.609C250.706 114.069 249.69 117.266 247.659 120.199C245.704 123.133 242.92 125.502 239.31 127.308C235.699 129.113 231.374 130.053 226.335 130.128ZM260.613 72.2471H286.789C287.391 72.2471 287.88 72.4727 288.256 72.924C288.707 73.3753 288.933 73.8643 288.933 74.3908C288.933 74.9926 288.707 75.5191 288.256 75.9704C287.88 76.3465 287.391 76.5345 286.789 76.5345H260.613C260.086 76.5345 259.597 76.3089 259.146 75.8576C258.694 75.4063 258.469 74.9173 258.469 74.3908C258.469 73.789 258.694 73.3001 259.146 72.924C259.597 72.4727 260.086 72.2471 260.613 72.2471ZM272.121 55.6612C272.798 55.6612 273.325 55.8869 273.701 56.3382C274.152 56.7895 274.378 57.316 274.378 57.9178V116.702C274.378 119.184 274.679 121.027 275.28 122.23C275.957 123.359 276.785 124.111 277.763 124.487C278.74 124.788 279.681 124.938 280.583 124.938C281.11 124.938 281.561 124.863 281.937 124.713C282.313 124.562 282.765 124.487 283.291 124.487C283.818 124.487 284.269 124.713 284.645 125.164C285.021 125.54 285.209 125.991 285.209 126.518C285.209 127.195 284.758 127.796 283.855 128.323C283.028 128.774 281.975 129 280.696 129C280.245 129 279.417 129 278.214 129C277.086 128.925 275.844 128.586 274.49 127.985C273.212 127.308 272.121 126.142 271.218 124.487C270.316 122.757 269.865 120.237 269.865 116.927V57.9178C269.865 57.316 270.09 56.7895 270.541 56.3382C270.993 55.8869 271.519 55.6612 272.121 55.6612ZM352.627 100.567C352.627 106.133 351.424 111.173 349.017 115.686C346.61 120.124 343.3 123.659 339.088 126.292C334.951 128.85 330.212 130.128 324.871 130.128C319.606 130.128 314.867 128.85 310.655 126.292C306.443 123.659 303.095 120.124 300.613 115.686C298.206 111.173 297.003 106.133 297.003 100.567C297.003 94.9257 298.206 89.886 300.613 85.448C303.095 80.9349 306.443 77.3996 310.655 74.8421C314.867 72.2094 319.606 70.8931 324.871 70.8931C330.212 70.8931 334.951 72.2094 339.088 74.8421C343.3 77.3996 346.61 80.9349 349.017 85.448C351.424 89.886 352.627 94.9257 352.627 100.567ZM348.114 100.567C348.114 95.6779 347.099 91.3528 345.068 87.5918C343.112 83.7556 340.366 80.7468 336.831 78.5655C333.371 76.3089 329.384 75.1806 324.871 75.1806C320.433 75.1806 316.447 76.3089 312.911 78.5655C309.376 80.7468 306.593 83.7556 304.562 87.5918C302.531 91.3528 301.516 95.6779 301.516 100.567C301.516 105.381 302.531 109.706 304.562 113.542C306.593 117.303 309.376 120.312 312.911 122.569C316.447 124.75 320.433 125.841 324.871 125.841C329.384 125.841 333.371 124.75 336.831 122.569C340.366 120.312 343.112 117.303 345.068 113.542C347.099 109.706 348.114 105.381 348.114 100.567ZM391.877 70.8931C395.261 70.8931 398.421 71.2692 401.354 72.0214C404.363 72.7736 406.77 73.789 408.575 75.0678C410.456 76.2713 411.396 77.55 411.396 78.904C411.396 79.4305 411.17 79.957 410.719 80.4836C410.343 80.9349 409.854 81.1605 409.252 81.1605C408.425 81.1605 407.748 80.9349 407.221 80.4836C406.77 80.0322 406.281 79.5057 405.755 78.904C405.228 78.227 404.401 77.6252 403.272 77.0987C402.219 76.5722 400.715 76.1208 398.759 75.7447C396.879 75.3687 394.547 75.1806 391.764 75.1806C387.401 75.1806 383.414 76.3089 379.804 78.5655C376.193 80.822 373.297 83.8684 371.116 87.7046C369.01 91.4656 367.957 95.7155 367.957 100.454C367.957 105.268 368.935 109.593 370.89 113.43C372.921 117.266 375.704 120.312 379.24 122.569C382.85 124.75 387.025 125.841 391.764 125.841C395.149 125.841 397.706 125.54 399.436 124.938C401.241 124.261 402.783 123.547 404.062 122.794C405.642 121.892 406.732 121.027 407.334 120.199C407.936 119.372 408.651 118.958 409.478 118.958C410.08 118.958 410.531 119.146 410.832 119.522C411.208 119.898 411.396 120.387 411.396 120.989C411.396 121.892 410.569 123.095 408.914 124.6C407.259 126.029 404.927 127.308 401.918 128.436C398.985 129.564 395.487 130.128 391.425 130.128C385.934 130.128 381.083 128.85 376.87 126.292C372.658 123.659 369.348 120.124 366.941 115.686C364.61 111.173 363.444 106.096 363.444 100.454C363.444 95.1889 364.61 90.3373 366.941 85.8993C369.348 81.3862 372.658 77.7757 376.87 75.0678C381.158 72.2847 386.16 70.8931 391.877 70.8931ZM428.06 129C427.383 129 426.819 128.774 426.368 128.323C425.992 127.872 425.804 127.345 425.804 126.743V47.7632C425.804 47.1614 425.992 46.6349 426.368 46.1836C426.819 45.7323 427.383 45.5066 428.06 45.5066C428.737 45.5066 429.264 45.7323 429.64 46.1836C430.091 46.6349 430.317 47.1614 430.317 47.7632V126.743C430.317 127.345 430.091 127.872 429.64 128.323C429.264 128.774 428.737 129 428.06 129ZM467.212 72.0214C467.814 72.0214 468.34 72.2471 468.792 72.6984C469.243 73.1497 469.469 73.7138 469.469 74.3908C469.469 75.0678 469.205 75.6319 468.679 76.0832L429.527 108.691L429.301 103.275L465.745 72.6984C466.197 72.2471 466.685 72.0214 467.212 72.0214ZM467.889 129C467.287 129 466.723 128.737 466.197 128.21L438.892 99.1003L442.277 96.1668L469.469 125.051C469.92 125.502 470.146 126.066 470.146 126.743C470.146 127.496 469.845 128.06 469.243 128.436C468.641 128.812 468.19 129 467.889 129ZM497.61 122.117C497.61 124.073 496.895 125.728 495.466 127.082C494.037 128.361 492.382 129 490.501 129C488.395 129 486.703 128.361 485.424 127.082C484.145 125.728 483.506 124.073 483.506 122.117V56.9023C483.506 54.9466 484.183 53.3294 485.537 52.0507C486.891 50.6967 488.621 50.0198 490.727 50.0198C492.532 50.0198 494.112 50.6967 495.466 52.0507C496.895 53.3294 497.61 54.9466 497.61 56.9023V122.117ZM541.319 129C539.212 129 537.482 128.361 536.128 127.082C534.774 125.728 534.097 124.073 534.097 122.117V56.6767H548.765V122.117C548.765 124.073 548.051 125.728 546.621 127.082C545.268 128.361 543.5 129 541.319 129ZM516.383 62.9951C514.428 62.9951 512.773 62.3933 511.419 61.1898C510.14 59.9863 509.501 58.4067 509.501 56.451C509.501 54.4953 510.14 52.9533 511.419 51.825C512.773 50.6215 514.428 50.0198 516.383 50.0198H566.479C568.435 50.0198 570.052 50.6215 571.331 51.825C572.685 53.0285 573.362 54.6081 573.362 56.5638C573.362 58.5195 572.685 60.0991 571.331 61.3026C570.052 62.4309 568.435 62.9951 566.479 62.9951H516.383Z" fill="white"/>
</svg>
